<?xml version="1.0" encoding="UTF-8" standalone="no"?>
<svg
   width="64"
   height="64"
   version="1.1"
   id="svg1"
   sodipodi:docname="switch_buttons_left_outline.svg"
   inkscape:version="1.4.2 (f4327f4, 2025-05-13)"
   xmlns:inkscape="http://www.inkscape.org/namespaces/inkscape"
   xmlns:sodipodi="http://sodipodi.sourceforge.net/DTD/sodipodi-0.dtd"
   xmlns="http://www.w3.org/2000/svg"
   xmlns:svg="http://www.w3.org/2000/svg">
  <sodipodi:namedview
     id="namedview1"
     pagecolor="#ffffff"
     bordercolor="#000000"
     borderopacity="0.25"
     inkscape:showpageshadow="2"
     inkscape:pageopacity="0.0"
     inkscape:pagecheckerboard="0"
     inkscape:deskcolor="#d1d1d1"
     inkscape:zoom="12.609375"
     inkscape:cx="32"
     inkscape:cy="25.655514"
     inkscape:window-width="1920"
     inkscape:window-height="1009"
     inkscape:window-x="-8"
     inkscape:window-y="-8"
     inkscape:window-maximized="1"
     inkscape:current-layer="svg1" />
  <defs
     id="defs1" />
  <g
     id="g1"
     style="fill:#000000">
    <path
       stroke="none"
       fill="#FFFFFF"
       d="M44.5 28.5 Q43 29.95 43 32 43 34 44.5 35.45 L44.55 35.5 Q46 37 48 37 50.05 37 51.5 35.5 L51.55 35.5 Q53 34 53 32 53 29.95 51.55 28.5 50.05 27 48 27 46 27 44.55 28.5 L44.5 28.5 M32 24 Q28.75 24 26.4 21.6 24 19.25 24 16 24 12.7 26.4 10.35 28.75 8 32 8 35.3 8 37.65 10.35 40 12.7 40 16 40 19.25 37.65 21.6 35.3 24 32 24 M48 40 Q44.75 40 42.4 37.6 40 35.25 40 32 40 28.7 42.4 26.35 44.75 24 48 24 51.3 24 53.65 26.35 56 28.7 56 32 56 35.25 53.65 37.6 51.3 40 48 40 M35.55 12.5 Q34.05 11 32 11 30 11 28.55 12.5 L28.5 12.5 Q27 13.95 27 16 27 18 28.5 19.45 L28.55 19.5 Q30 21 32 21 34.05 21 35.5 19.5 L35.55 19.5 Q37 18 37 16 37 13.95 35.55 12.5 M16 40 Q12.75 40 10.4 37.6 8 35.25 8 32 8 28.7 10.4 26.35 12.75 24 16 24 19.3 24 21.65 26.35 24 28.7 24 32 24 35.25 21.65 37.6 19.3 40 16 40 M35.55 51.5 Q37 50 37 48 37 45.95 35.55 44.5 34.05 43 32 43 30 43 28.55 44.5 L28.5 44.5 Q27 45.95 27 48 27 50 28.5 51.45 L28.55 51.5 Q30 53 32 53 34.05 53 35.5 51.5 L35.55 51.5 M32 56 Q28.75 56 26.4 53.6 24 51.25 24 48 24 44.7 26.4 42.35 28.75 40 32 40 35.3 40 37.65 42.35 40 44.7 40 48 40 51.25 37.65 53.6 35.3 56 32 56"
       id="path1"
       style="fill:#000000" />
  </g>
</svg>
